<?xml version="1.0" encoding="UTF-8" standalone="no"?>
<!-- Generator: Adobe Illustrator 27.6.1, SVG Export Plug-In . SVG Version: 6.00 Build 0)  -->

<svg
   version="1.1"
   id="Layer_1"
   x="0px"
   y="0px"
   viewBox="0 0 370 320"
   xml:space="preserve"
   sodipodi:docname="jhu.svg"
   width="370"
   height="320"
   inkscape:version="1.3.2 (091e20e, 2023-11-25, custom)"
   xmlns:inkscape="http://www.inkscape.org/namespaces/inkscape"
   xmlns:sodipodi="http://sodipodi.sourceforge.net/DTD/sodipodi-0.dtd"
   xmlns:xlink="http://www.w3.org/1999/xlink"
   xmlns="http://www.w3.org/2000/svg"
   xmlns:svg="http://www.w3.org/2000/svg"><defs
   id="defs51" /><sodipodi:namedview
   id="namedview51"
   pagecolor="#ffffff"
   bordercolor="#000000"
   borderopacity="0.25"
   inkscape:showpageshadow="2"
   inkscape:pageopacity="0.0"
   inkscape:pagecheckerboard="0"
   inkscape:deskcolor="#d1d1d1"
   showgrid="false"
   inkscape:zoom="0.79150943"
   inkscape:cx="530"
   inkscape:cy="299.42789"
   inkscape:window-width="1440"
   inkscape:window-height="830"
   inkscape:window-x="-6"
   inkscape:window-y="-6"
   inkscape:window-maximized="1"
   inkscape:current-layer="Layer_1" />
<style
   type="text/css"
   id="style1">
	.st0{fill:#002D72;}
	.st1{clip-path:url(#SVGID_00000182508643675976480840000011083831540174013370_);fill:#002D72;}
	.st2{clip-path:url(#SVGID_00000182508643675976480840000011083831540174013370_);fill:#044C7D;}
	.st3{clip-path:url(#SVGID_00000181080170742602179840000008462706329113934982_);fill:#002D72;}
	.st4{clip-path:url(#SVGID_00000181088858936506793260000015568731556991612058_);}
	.st5{clip-path:url(#SVGID_00000156563934438136206140000004270043746887830950_);}
	.st6{display:none;fill:#043673;}
	.st7{fill:#FFFFFF;}
	.st8{clip-path:url(#SVGID_00000117678089265968249410000006750069710032354464_);fill:#FFFFFF;}
	.st9{clip-path:url(#SVGID_00000065072352354625294110000001312844894601857187_);fill:#FFFFFF;}
	.st10{clip-path:url(#SVGID_00000020381010359932167630000002572461961896555183_);fill:#002D72;}
	.st11{clip-path:url(#SVGID_00000020381010359932167630000002572461961896555183_);fill:#044C7D;}
	.st12{clip-path:url(#SVGID_00000039111511242922111330000010711251161682077084_);fill:#002D72;}
	.st13{clip-path:url(#SVGID_00000009551302647020005160000007142573270019807896_);}
	.st14{clip-path:url(#SVGID_00000109741420505526621350000014053051320269939633_);}
	.st15{clip-path:url(#SVGID_00000173863799747822215740000013968369218963832998_);fill:#FFFFFF;}
	.st16{clip-path:url(#SVGID_00000111151435792998307690000009181927493576748458_);fill:#FFFFFF;}
</style>
<g
   id="g51"
   transform="translate(-348.70084,-106.65316)">
	<g
   id="g10"
   transform="matrix(0.40268934,0,0,0.40268934,321.10177,211.84849)"
   style="stroke-width:2.48331">
		<path
   class="st0"
   d="m 252.2,481 c 0,-3.7 -0.1,-10.6 -1.1,-12.4 -0.4,-0.7 -1.5,-1.1 -3,-1.3 l -1.5,-0.1 c -0.4,-0.4 -0.2,-1.2 0.1,-1.4 2.3,0.1 4.5,0.2 6.8,0.2 2.5,0 4.1,-0.1 6.3,-0.2 0.5,0.3 0.4,1.1 0.1,1.4 l -1.4,0.1 c -1.5,0.1 -2.6,0.7 -3,1.4 -0.8,2 -0.8,8.9 -0.8,12.2 v 6.8 c 0,5.2 -0.8,10.7 -4.2,14.3 -2.6,2.8 -7,4.4 -11.5,4.4 -4.1,0 -8.3,-0.8 -11.2,-3.3 -3.2,-2.6 -4.7,-7 -4.7,-14.2 v -14.2 c 0,-6.2 -0.1,-7.3 -3.6,-7.6 L 218,467 c -0.4,-0.2 -0.2,-1.3 0.1,-1.4 3,0.1 5,0.2 7.4,0.2 2.5,0 4.4,-0.1 7.4,-0.2 0.4,0.2 0.5,1.2 0.1,1.4 l -1.4,0.1 c -3.5,0.3 -3.6,1.3 -3.6,7.6 v 13 c 0,9.7 3,16 12.2,16 8.7,0 12,-6.8 12,-16 z"
   id="path1"
   style="stroke-width:2.48331" />
		<path
   class="st0"
   d="m 330.7,495.3 c 0,1.8 0,8.9 0.2,10.5 -0.1,0.4 -0.5,0.7 -1.1,0.7 -0.7,-1 -2.5,-3.1 -7.7,-9.1 l -13.9,-15.9 c -1.6,-1.9 -5.7,-6.8 -7,-8.1 H 301 c -0.2,0.7 -0.3,2.1 -0.3,3.9 v 13.1 c 0,2.8 0.1,10.6 1.1,12.4 0.4,0.7 1.6,1 3.1,1.1 l 1.9,0.2 c 0.4,0.5 0.3,1.2 -0.1,1.5 -2.7,-0.1 -4.8,-0.2 -7,-0.2 -2.5,0 -4.1,0.1 -6.2,0.2 -0.4,-0.3 -0.5,-1.1 -0.1,-1.5 l 1.6,-0.2 c 1.4,-0.2 2.3,-0.5 2.6,-1.2 0.8,-2.1 0.8,-9.5 0.8,-12.4 v -17.4 c 0,-1.7 -0.1,-2.9 -1.3,-4.3 -0.8,-0.8 -2.3,-1.3 -3.7,-1.4 l -1,-0.1 c -0.4,-0.4 -0.4,-1.3 0.1,-1.5 2.5,0.2 5.7,0.2 6.8,0.2 1,0 2,-0.1 2.8,-0.2 1.2,3.1 8.3,11 10.3,13.2 l 5.8,6.6 c 4.1,4.6 7.1,8 9.9,10.9 h 0.1 c 0.2,-0.3 0.2,-1.3 0.2,-2.5 V 481 c 0,-2.8 -0.1,-10.6 -1.2,-12.4 -0.4,-0.6 -1.3,-0.9 -3.7,-1.2 l -1,-0.1 c -0.4,-0.4 -0.4,-1.3 0.1,-1.5 2.8,0.1 4.8,0.2 7.1,0.2 2.6,0 4.1,-0.1 6.2,-0.2 0.5,0.3 0.5,1.1 0.1,1.5 l -0.8,0.1 c -1.9,0.3 -3.1,0.8 -3.4,1.3 -1,2.2 -0.9,9.6 -0.9,12.4 v 14.2 z"
   id="path2"
   style="stroke-width:2.48331" />
		<path
   class="st0"
   d="m 375.4,475 c 0,-6.4 -0.1,-7.4 -3.7,-7.7 l -1.5,-0.1 c -0.4,-0.2 -0.2,-1.3 0.1,-1.5 3,0.1 5,0.2 7.6,0.2 2.4,0 4.4,-0.1 7.4,-0.2 0.4,0.2 0.5,1.3 0.1,1.5 l -1.5,0.1 c -3.5,0.3 -3.7,1.3 -3.7,7.7 v 21.4 c 0,6.4 0.1,7.2 3.7,7.6 l 1.5,0.2 c 0.4,0.2 0.2,1.3 -0.1,1.5 -3,-0.1 -5,-0.2 -7.4,-0.2 -2.5,0 -4.6,0.1 -7.6,0.2 -0.4,-0.2 -0.5,-1.1 -0.1,-1.5 l 1.5,-0.2 c 3.5,-0.4 3.7,-1.3 3.7,-7.6 z"
   id="path3"
   style="stroke-width:2.48331" />
		<path
   class="st0"
   d="m 424.1,472.3 c -1.4,-3.4 -2.3,-4.6 -4.9,-4.9 l -1.1,-0.1 c -0.4,-0.4 -0.4,-1.2 0.1,-1.5 1.7,0.1 3.7,0.2 6.2,0.2 2.6,0 4.7,-0.1 7.3,-0.2 0.4,0.2 0.5,1.1 0.1,1.5 l -0.9,0.1 c -2.3,0.3 -2.8,0.7 -2.8,1.1 0.1,0.6 1.1,3.9 3,8.4 2.8,7 5.5,13.9 8.5,20.7 1.9,-4 4.4,-10.1 5.8,-13.3 1.7,-4.1 4.6,-10.9 5.6,-13.5 0.5,-1.3 0.5,-1.9 0.5,-2.3 0,-0.4 -0.6,-0.9 -2.7,-1.1 l -1.1,-0.1 c -0.4,-0.4 -0.3,-1.3 0.1,-1.5 1.7,0.1 4,0.2 6.2,0.2 2,0 3.8,-0.1 5.8,-0.2 0.4,0.2 0.4,1.2 0.1,1.5 l -1.8,0.1 c -1.4,0.1 -2.3,0.8 -3.1,2.1 -1.7,2.8 -4,7.7 -6.7,13.8 l -3.2,7.4 c -2.4,5.5 -5.2,12.5 -6.2,15.7 -0.2,0.1 -0.4,0.2 -0.7,0.2 -0.3,0 -0.6,-0.1 -0.9,-0.2 -0.7,-2.5 -1.7,-5.5 -2.8,-8 z"
   id="path4"
   style="stroke-width:2.48331" />
		<path
   class="st0"
   d="m 496.4,474.9 c 0,-6.3 -0.1,-7.2 -3.7,-7.6 l -1,-0.1 c -0.4,-0.2 -0.2,-1.3 0.1,-1.5 2.6,0.1 4.6,0.2 7.1,0.2 h 11.3 c 3.8,0 7.4,0 8.1,-0.2 0.4,1 0.7,5.3 1,8 -0.2,0.4 -1.2,0.5 -1.5,0.1 -0.9,-2.8 -1.4,-4.9 -4.6,-5.7 -1.3,-0.3 -3.2,-0.4 -5.8,-0.4 h -4.3 c -1.8,0 -1.8,0.1 -1.8,2.4 v 12 c 0,1.7 0.2,1.7 2,1.7 h 3.5 c 2.5,0 4.4,-0.1 5.1,-0.4 0.7,-0.2 1.1,-0.6 1.4,-2.1 l 0.5,-2.5 c 0.3,-0.4 1.3,-0.4 1.6,0.1 0,1.4 -0.2,3.8 -0.2,6.1 0,2.2 0.2,4.5 0.2,5.8 -0.2,0.4 -1.3,0.4 -1.6,0.1 l -0.6,-2.3 c -0.2,-1.1 -0.6,-2 -1.9,-2.3 -0.8,-0.2 -2.3,-0.3 -4.6,-0.3 h -3.5 c -1.8,0 -2,0.1 -2,1.6 v 8.5 c 0,3.2 0.2,5.2 1.1,6.2 0.7,0.7 2,1.4 7.3,1.4 4.6,0 6.4,-0.2 7.7,-0.9 1.1,-0.6 2.7,-2.7 4.3,-5.8 0.4,-0.3 1.3,-0.1 1.5,0.4 -0.4,2.1 -1.9,6.7 -2.7,8.3 -5.4,-0.1 -10.7,-0.2 -16.1,-0.2 H 499 c -2.6,0 -4.6,0.1 -8.2,0.2 -0.4,-0.2 -0.5,-1.1 -0.1,-1.5 l 2,-0.2 c 3.4,-0.3 3.7,-1.2 3.7,-7.5 z"
   id="path5"
   style="stroke-width:2.48331" />
		<path
   class="st0"
   d="m 561.5,475 c 0,-5.7 -0.2,-6.7 -2.6,-7 l -1.9,-0.2 c -0.4,-0.3 -0.4,-1.3 0.1,-1.5 3.4,-0.3 7.5,-0.5 13.4,-0.5 3.7,0 7.3,0.3 10,1.8 2.9,1.5 5,4.2 5,8.4 0,5.7 -4.5,8.8 -7.5,10 -0.3,0.4 0,1 0.3,1.4 4.8,7.7 8,12.6 12.1,16 1,0.9 2.5,1.6 4.1,1.7 0.3,0.1 0.4,0.6 0.1,0.8 -0.5,0.2 -1.5,0.3 -2.6,0.3 -5.1,0 -8.2,-1.5 -12.4,-7.6 -1.6,-2.2 -4,-6.4 -5.9,-9.1 -0.9,-1.3 -1.9,-1.9 -4.3,-1.9 -2.7,0 -2.8,0.1 -2.8,1.3 v 7.6 c 0,6.3 0.1,7 3.6,7.5 l 1.3,0.2 c 0.4,0.3 0.2,1.3 -0.1,1.5 -2.7,-0.1 -4.7,-0.2 -7.2,-0.2 -2.5,0 -4.7,0.1 -7.5,0.2 -0.4,-0.2 -0.5,-1.1 -0.1,-1.5 l 1.5,-0.2 c 3.5,-0.4 3.6,-1.2 3.6,-7.5 V 475 Z m 4.9,8.5 c 0,1.1 0,1.7 0.2,2 0.2,0.2 1.1,0.3 4.1,0.3 2.2,0 4.4,-0.2 6.2,-1.6 1.6,-1.3 3,-3.4 3,-7.4 0,-4.8 -2.9,-9.3 -9.6,-9.3 -3.7,0 -3.9,0.2 -3.9,1.9 z"
   id="path6"
   style="stroke-width:2.48331" />
		<path
   class="st0"
   d="m 634.1,506.5 c -5,0 -8.2,-1.6 -9.4,-2.2 -0.7,-1.3 -1.5,-5.6 -1.6,-8.4 0.3,-0.4 1.2,-0.5 1.4,-0.2 0.9,3.1 3.4,8.9 10.3,8.9 5,0 7.5,-3.3 7.5,-6.9 0,-2.6 -0.5,-5.6 -4.9,-8.4 l -5.7,-3.7 c -3,-2 -6.5,-5.4 -6.5,-10.3 0,-5.7 4.5,-10.3 12.3,-10.3 1.9,0 4,0.4 5.6,0.8 0.8,0.2 1.6,0.4 2.1,0.4 0.5,1.4 1.1,4.8 1.1,7.3 -0.2,0.4 -1.2,0.5 -1.5,0.2 -0.8,-2.9 -2.4,-6.8 -8.2,-6.8 -5.9,0 -7.2,3.9 -7.2,6.7 0,3.5 2.9,6 5.1,7.4 l 4.8,3 c 3.8,2.3 7.5,5.8 7.5,11.5 0.1,6.5 -4.9,11 -12.7,11"
   id="path7"
   style="stroke-width:2.48331" />
		<path
   class="st0"
   d="m 687.7,475 c 0,-6.4 -0.1,-7.4 -3.7,-7.7 l -1.5,-0.1 c -0.4,-0.2 -0.2,-1.3 0.1,-1.5 3,0.1 5,0.2 7.6,0.2 2.4,0 4.4,-0.1 7.5,-0.2 0.4,0.2 0.5,1.3 0.1,1.5 l -1.5,0.1 c -3.5,0.3 -3.7,1.3 -3.7,7.7 v 21.4 c 0,6.4 0.1,7.2 3.7,7.6 l 1.5,0.2 c 0.4,0.2 0.2,1.3 -0.1,1.5 -3,-0.1 -5,-0.2 -7.5,-0.2 -2.5,0 -4.6,0.1 -7.6,0.2 -0.4,-0.2 -0.5,-1.1 -0.1,-1.5 L 684,504 c 3.5,-0.4 3.7,-1.3 3.7,-7.6 z"
   id="path8"
   style="stroke-width:2.48331" />
		<path
   class="st0"
   d="m 754.4,496.5 c 0,6.3 0.1,7.2 3.6,7.5 l 1.9,0.2 c 0.4,0.2 0.2,1.3 -0.1,1.5 -3.4,-0.1 -5.5,-0.2 -7.9,-0.2 -2.4,0 -4.5,0.1 -8.4,0.2 -0.4,-0.2 -0.5,-1.2 0,-1.5 l 2.2,-0.2 c 3.4,-0.3 3.7,-1.2 3.7,-7.5 v -26.9 c 0,-1.9 0,-1.9 -1.8,-1.9 h -3.3 c -2.6,0 -5.9,0.1 -7.4,1.5 -1.4,1.3 -2,2.6 -2.7,4.1 -0.5,0.4 -1.3,0.1 -1.6,-0.4 1,-2.7 1.9,-6.6 2.3,-9 0.2,-0.1 1,-0.2 1.1,0 0.4,1.9 2.3,1.9 5.1,1.9 h 24.3 c 3.2,0 3.8,-0.1 4.7,-1.7 0.3,-0.1 1,-0.1 1.1,0.2 -0.7,2.5 -1.1,7.3 -0.9,9.1 -0.2,0.5 -1.3,0.5 -1.6,0.1 -0.2,-1.5 -0.6,-3.7 -1.5,-4.4 -1.4,-1 -3.7,-1.5 -7,-1.5 h -4.3 c -1.8,0 -1.7,0.1 -1.7,2 v 26.9 z"
   id="path9"
   style="stroke-width:2.48331" />
		<path
   class="st0"
   d="m 822.9,496.4 c 0,6.4 0.4,7.4 3.6,7.6 l 2.3,0.2 c 0.4,0.4 0.2,1.3 -0.1,1.5 -3.7,-0.1 -5.8,-0.2 -8.2,-0.2 -2.5,0 -4.7,0.1 -7.9,0.2 -0.4,-0.2 -0.5,-1.1 -0.1,-1.5 l 1.9,-0.2 c 3.5,-0.4 3.6,-1.2 3.6,-7.6 v -3.1 c 0,-3.3 -0.2,-4.1 -1.9,-7.4 L 809,472.1 c -2,-4 -2.9,-4.3 -4.8,-4.6 l -1.7,-0.3 c -0.4,-0.4 -0.3,-1.3 0.1,-1.5 1.9,0.1 4.1,0.2 7,0.2 2.8,0 4.9,-0.1 6.4,-0.2 0.5,0.2 0.5,1.1 0.2,1.5 l -0.8,0.1 c -2.1,0.3 -2.5,0.6 -2.5,1.1 0,0.6 1.6,4 1.9,4.6 2.2,4.4 4.4,9.2 6.8,13.3 1.9,-3.2 3.8,-6.7 5.6,-10.2 1.7,-3.1 3.9,-7.2 3.9,-7.9 0,-0.4 -1.1,-0.8 -2.5,-1 l -1.1,-0.1 c -0.4,-0.4 -0.4,-1.3 0.1,-1.5 2.2,0.1 3.9,0.2 5.8,0.2 1.9,0 3.5,-0.1 5.6,-0.2 0.5,0.3 0.5,1.1 0.1,1.5 l -1.7,0.3 c -3.1,0.5 -4.9,4.3 -7.9,9.5 l -3.8,6.5 c -2.7,4.6 -2.8,5.1 -2.8,9.7 z"
   id="path10"
   style="stroke-width:2.48331" />
	</g>
	<g
   id="g38"
   transform="translate(0,24.004768)">
		<defs
   id="defs10">
			<rect
   id="SVGID_1_"
   x="431"
   y="93.5"
   width="195.10001"
   height="210.2" />
		</defs>
		<clipPath
   id="SVGID_00000132774159448567193740000014715255999368880020_">
			<use
   xlink:href="#SVGID_1_"
   style="overflow:visible"
   id="use10" />
		</clipPath>
		<path
   style="fill:#002d72"
   d="m 532.8,302 c 5.1,-2.8 11.3,-6.8 18.1,-11.8 v -60.8 l -18.1,-12 z"
   clip-path="url(#SVGID_00000132774159448567193740000014715255999368880020_)"
   id="path11" />
		<path
   style="fill:#002d72"
   d="m 532.8,175.4 18.1,12 v -30.7 c -6,-0.3 -12,-0.4 -18.1,-0.5 z"
   clip-path="url(#SVGID_00000132774159448567193740000014715255999368880020_)"
   id="path12" />
		<path
   style="fill:#002d72"
   d="m 587,159.9 c -6,-0.8 -12,-1.4 -18.1,-1.9 v 41.5 l 18.1,12 z"
   clip-path="url(#SVGID_00000132774159448567193740000014715255999368880020_)"
   id="path13" />
		<path
   style="fill:#002d72"
   d="m 568.9,241.5 v 33 c 6.1,-6 12.2,-13 18.1,-21 v -0.1 z"
   clip-path="url(#SVGID_00000132774159448567193740000014715255999368880020_)"
   id="path14" />
		<path
   style="fill:#044c7d"
   d="m 587,253.6 c 0,0 0,-0.1 0,0 z"
   clip-path="url(#SVGID_00000132774159448567193740000014715255999368880020_)"
   id="path15" />
		<path
   style="fill:#002d72"
   d="m 605,162.6 v 60.8 h 0.1 c 7.9,-16.3 14.2,-35.4 17.8,-57.5 l -0.6,-0.1 c -5.7,-1.1 -11.5,-2.2 -17.3,-3.2"
   clip-path="url(#SVGID_00000132774159448567193740000014715255999368880020_)"
   id="path16" />
		<polygon
   style="fill:#002d72"
   points="550.9,187.4 550.9,229.5 568.9,241.5 568.9,199.4 "
   clip-path="url(#SVGID_00000132774159448567193740000014715255999368880020_)"
   id="polygon16" />
		<path
   style="fill:#002d72"
   d="m 587,211.5 v 42 0 c 6.5,-8.7 12.6,-18.7 18,-29.9 v -0.1 z"
   clip-path="url(#SVGID_00000132774159448567193740000014715255999368880020_)"
   id="path17" />
		<path
   style="fill:#044c7d"
   d="m 605,223.6 c 0,0 0.1,-0.1 0,0 v -0.1 z"
   clip-path="url(#SVGID_00000132774159448567193740000014715255999368880020_)"
   id="path18" />
		<path
   style="fill:#002d72"
   d="m 493.2,232.2 c 5.3,-1.5 10,-4.4 13.6,-8.5 -2,-0.7 -4.3,-1.4 -6.9,-2 -2,4.4 -4.5,7.9 -6.7,10.5"
   clip-path="url(#SVGID_00000132774159448567193740000014715255999368880020_)"
   id="path19" />
		<path
   style="fill:#002d72"
   d="m 464.5,223.8 c 3.6,4 8.3,7 13.6,8.5 -2.2,-2.6 -4.7,-6.1 -6.7,-10.5 -2.6,0.5 -4.9,1.2 -6.9,2"
   clip-path="url(#SVGID_00000132774159448567193740000014715255999368880020_)"
   id="path20" />
		<path
   style="fill:#002d72"
   d="m 483,180 c -2,2.2 -4.3,5.2 -6.2,9 1.9,0.3 4,0.4 6.2,0.5 z"
   clip-path="url(#SVGID_00000132774159448567193740000014715255999368880020_)"
   id="path21" />
		<path
   style="fill:#002d72"
   d="m 501.7,216.8 c 3.3,0.8 6,1.7 8.3,2.6 2.1,-3.5 3.5,-7.6 3.9,-11.9 h -10.5 c -0.3,3.4 -0.9,6.5 -1.7,9.3"
   clip-path="url(#SVGID_00000132774159448567193740000014715255999368880020_)"
   id="path22" />
		<path
   style="fill:#002d72"
   d="m 478.1,177.6 c -5.3,1.5 -10,4.5 -13.6,8.5 2,0.7 4.3,1.4 6.9,2 2,-4.4 4.5,-7.9 6.7,-10.5"
   clip-path="url(#SVGID_00000132774159448567193740000014715255999368880020_)"
   id="path23" />
		<path
   style="fill:#002d72"
   d="m 506.8,186 c -3.6,-4 -8.3,-7 -13.6,-8.5 2.2,2.6 4.7,6.1 6.7,10.5 2.6,-0.5 4.9,-1.3 6.9,-2"
   clip-path="url(#SVGID_00000132774159448567193740000014715255999368880020_)"
   id="path24" />
		<path
   style="fill:#002d72"
   d="m 503.4,202.3 h 10.5 c -0.4,-4.3 -1.8,-8.3 -3.9,-11.9 -2.3,0.9 -5,1.8 -8.3,2.6 0.8,2.8 1.4,5.9 1.7,9.3"
   clip-path="url(#SVGID_00000132774159448567193740000014715255999368880020_)"
   id="path25" />
		<path
   style="fill:#002d72"
   d="m 488.2,229.9 c 2,-2.2 4.3,-5.2 6.2,-9.1 -1.9,-0.3 -4,-0.4 -6.2,-0.5 z"
   clip-path="url(#SVGID_00000132774159448567193740000014715255999368880020_)"
   id="path26" />
		<path
   style="fill:#002d72"
   d="m 483,207.5 h -9.9 c 0.2,3 0.8,5.8 1.6,8.3 2.5,-0.4 5.3,-0.6 8.2,-0.8 v -7.5 z"
   clip-path="url(#SVGID_00000132774159448567193740000014715255999368880020_)"
   id="path27" />
		<path
   style="fill:#002d72"
   d="m 488.2,215.1 c 3,0.1 5.7,0.4 8.2,0.7 0.8,-2.5 1.4,-5.3 1.6,-8.3 h -9.9 v 7.6 z"
   clip-path="url(#SVGID_00000132774159448567193740000014715255999368880020_)"
   id="path28" />
		<path
   style="fill:#002d72"
   d="m 494.5,189 c -1.9,-3.9 -4.3,-6.9 -6.2,-9.1 v 9.6 c 2.2,-0.1 4.2,-0.3 6.2,-0.5"
   clip-path="url(#SVGID_00000132774159448567193740000014715255999368880020_)"
   id="path29" />
		<path
   style="fill:#002d72"
   d="m 498.1,202.3 c -0.2,-3 -0.8,-5.8 -1.6,-8.3 -2.5,0.4 -5.3,0.6 -8.3,0.8 v 7.6 h 9.9 z"
   clip-path="url(#SVGID_00000132774159448567193740000014715255999368880020_)"
   id="path30" />
		<path
   style="fill:#002d72"
   d="m 476.9,220.8 c 1.9,3.8 4.2,6.9 6.2,9 v -9.5 c -2.3,0.1 -4.3,0.2 -6.2,0.5"
   clip-path="url(#SVGID_00000132774159448567193740000014715255999368880020_)"
   id="path31" />
		<path
   style="fill:#002d72"
   d="m 469.6,193 c -3.3,-0.8 -6,-1.7 -8.3,-2.6 -2.1,3.5 -3.5,7.6 -3.9,11.9 H 468 c 0.2,-3.4 0.8,-6.5 1.6,-9.3"
   clip-path="url(#SVGID_00000132774159448567193740000014715255999368880020_)"
   id="path32" />
		<path
   style="fill:#002d72"
   d="m 483,194.7 c -2.9,-0.1 -5.7,-0.4 -8.2,-0.8 -0.8,2.5 -1.4,5.3 -1.6,8.3 h 9.9 v -7.5 z"
   clip-path="url(#SVGID_00000132774159448567193740000014715255999368880020_)"
   id="path33" />
		<path
   style="fill:#002d72"
   d="m 468,207.5 h -10.5 c 0.4,4.3 1.8,8.3 3.9,11.9 2.3,-0.9 5.1,-1.8 8.3,-2.6 -0.9,-2.8 -1.5,-5.9 -1.7,-9.3"
   clip-path="url(#SVGID_00000132774159448567193740000014715255999368880020_)"
   id="path34" />
		<path
   style="fill:#002d72"
   d="m 434.2,166 c 13.3,81.9 64.5,121.9 90.1,136 V 156.2 c -30.2,0.3 -60.3,3.5 -89.5,9.7 z m 51.4,5.3 c 18.5,0 33.6,15.1 33.6,33.6 0,18.5 -15.1,33.6 -33.6,33.6 -18.5,0 -33.6,-15.1 -33.6,-33.6 0.1,-18.5 15.1,-33.6 33.6,-33.6"
   clip-path="url(#SVGID_00000132774159448567193740000014715255999368880020_)"
   id="path35" />
		<path
   style="fill:#002d72"
   d="m 622.2,103.4 v 0 c -30.3,-6.5 -61.6,-9.9 -93.7,-9.9 -32.1,0 -63.5,3.4 -93.7,9.9 h -0.1 c -2.1,0.5 -3.7,2.5 -3.7,4.8 v 16.9 c 0,11.1 0.7,21.6 1.9,31.6 31.4,-6.6 63.6,-10 95.7,-10 32.1,0 64.3,3.3 95.6,9.9 1.2,-9.9 1.9,-20.4 1.9,-31.6 v -16.9 c 0,-2.3 -1.7,-4.2 -3.9,-4.7 m -21.1,41.9 c -23.5,-4.5 -50.5,-5.8 -72.6,-5.8 v 0 c -22.1,0 -49.1,1.4 -72.6,5.8 -0.9,0.2 -1.7,-0.6 -1.2,-1.6 l 15.4,-34.1 c 0.2,-0.3 10.1,-5.3 10.1,-5.3 12.7,-2.7 33.6,-1.5 48.1,3.9 h 0.1 c 14.6,-5.4 35.4,-6.5 48.1,-3.9 0,0 10,4.9 10.1,5.3 l 15.4,34.1 c 0.8,1 0,1.8 -0.9,1.6"
   clip-path="url(#SVGID_00000132774159448567193740000014715255999368880020_)"
   id="path36" />
		<path
   style="fill:#002d72"
   d="m 572.7,110.2 6.5,17.4 c -15.1,-2.1 -27.7,-1.1 -46.2,4.9 v 1.6 c 17.5,-0.7 39.6,-1.6 57.5,2.2 l -9.7,-22.4 z"
   clip-path="url(#SVGID_00000132774159448567193740000014715255999368880020_)"
   id="path37" />
		<path
   style="fill:#002d72"
   d="m 477.7,127.6 6.5,-17.4 -8.1,3.7 -9.7,22.4 c 17.9,-3.8 40,-2.9 57.5,-2.2 v -1.6 c -18.5,-6 -31.1,-7 -46.2,-4.9"
   clip-path="url(#SVGID_00000132774159448567193740000014715255999368880020_)"
   id="path38" />
	</g>
	<g
   id="g50"
   transform="matrix(0.40268934,0,0,0.40268934,321.10177,211.84849)"
   style="stroke-width:2.48331">
		<defs
   id="defs38">
			<rect
   id="SVGID_00000008128889585384415620000011357098970406942898_"
   x="92.300003"
   y="336.70001"
   width="872.5"
   height="119.2" />
		</defs>
		<clipPath
   id="SVGID_00000049925423301154522350000014122004600123427722_">
			<use
   xlink:href="#SVGID_00000008128889585384415620000011357098970406942898_"
   style="overflow:visible"
   id="use38" />
		</clipPath>
		<path
   style="fill:#002d72;stroke-width:3.26911"
   d="m 117.2,358.1 c 0,-15.3 -1.4,-17 -9.5,-17.7 l -3.4,-0.3 c -0.8,-0.6 -0.6,-3 0.3,-3.4 8,0.3 12.7,0.4 18.5,0.4 5.5,0 10.2,-0.1 15.7,-0.4 0.8,0.4 1.1,2.9 0.3,3.4 l -2.1,0.3 c -8.1,1.1 -8.4,3 -8.4,17.7 v 51.2 c 0,10.9 -0.6,20.4 -3.2,26.7 -4.6,11 -14.3,19.9 -27.2,19.9 -1.6,0 -5.9,-0.1 -5.9,-2.9 0,-2.3 2.1,-6.4 5,-6.4 1.7,0 3.3,0.3 5.1,0.8 1.9,0.5 3.9,1 5.8,1 2.9,0 4.6,-1.7 5.5,-3.6 3.2,-6.5 3.6,-27.2 3.6,-34.6 v -52.1 z"
   clip-path="url(#SVGID_00000049925423301154522350000014122004600123427722_)"
   id="path39" />
		<path
   style="fill:#002d72;stroke-width:3.26911"
   d="m 138.7,390.5 c 0,-23.3 17.5,-41.1 41.4,-41.1 26.9,0 40.4,19.4 40.4,39.9 0,23.5 -17.9,40.6 -40.4,40.6 -25.8,0.1 -41.4,-18.4 -41.4,-39.4 m 70.2,2.5 c 0,-19.2 -8.5,-39.9 -30.7,-39.9 -12.1,0 -27.8,8.3 -27.8,33.7 0,17.2 8.4,39.6 31.3,39.6 13.9,0 27.2,-10.5 27.2,-33.4"
   clip-path="url(#SVGID_00000049925423301154522350000014122004600123427722_)"
   id="path40" />
		<path
   style="fill:#002d72;stroke-width:3.26911"
   d="m 246.9,390.5 c -5.6,0 -5.8,0.2 -5.8,3.7 v 16.4 c 0,12.2 0.6,13.8 7.1,14.5 l 3.4,0.4 c 0.7,0.5 0.5,2.6 -0.2,2.9 -6.3,-0.2 -10.2,-0.3 -14.8,-0.3 -5,0 -9,0.2 -13.5,0.3 -0.7,-0.3 -0.9,-2.2 -0.2,-2.9 l 2,-0.4 c 6.5,-1.2 6.7,-2.3 6.7,-14.5 v -41.9 c 0,-12.2 -0.8,-14.2 -6.9,-14.7 l -3,-0.2 c -0.7,-0.5 -0.5,-2.6 0.2,-2.9 5.7,0.1 9.7,0.3 14.7,0.3 4.5,0 8.5,-0.1 13.5,-0.3 0.7,0.3 0.9,2.4 0.2,2.9 l -2.2,0.2 c -6.7,0.7 -7,2.4 -7,14.7 v 13.4 c 0,3.6 0.2,3.7 5.8,3.7 h 33.3 c 5.6,0 5.8,-0.1 5.8,-3.7 v -13.4 c 0,-12.2 -0.2,-14 -7.1,-14.7 l -2.2,-0.2 c -0.7,-0.5 -0.5,-2.6 0.2,-2.9 5.4,0.2 9.3,0.3 14.1,0.3 4.5,0 8.5,-0.1 13.7,-0.3 0.7,0.3 0.9,2.4 0.2,2.9 l -2.4,0.2 c -6.7,0.7 -7,2.4 -7,14.7 v 41.9 c 0,12.2 0.2,13.7 7,14.5 l 2.8,0.4 c 0.7,0.5 0.5,2.6 -0.2,2.9 -5.6,-0.2 -9.5,-0.3 -14.1,-0.3 -4.8,0 -9,0.1 -14.1,0.3 -0.7,-0.3 -0.9,-2.2 -0.2,-2.9 l 2.2,-0.4 c 7.1,-1.2 7.1,-2.3 7.1,-14.5 v -16.4 c 0,-3.5 -0.2,-3.7 -5.8,-3.7 z"
   clip-path="url(#SVGID_00000049925423301154522350000014122004600123427722_)"
   id="path41" />
		<path
   style="fill:#002d72;stroke-width:3.26911"
   d="m 384.8,408.3 c 0,3.5 0,17.3 0.3,20.4 -0.2,0.7 -0.9,1.3 -2.2,1.3 -1.4,-2 -4.8,-6 -14.9,-17.6 l -27,-30.7 c -3.1,-3.6 -11.1,-13.1 -13.5,-15.7 h -0.2 c -0.5,1.4 -0.6,4.1 -0.6,7.6 V 399 c 0,5.5 0.1,20.6 2.1,24.1 0.7,1.3 3,2 5.9,2.2 l 3.6,0.4 c 0.7,0.9 0.6,2.3 -0.2,2.9 -5.2,-0.2 -9.3,-0.3 -13.6,-0.3 -4.9,0 -8,0.1 -12.1,0.3 -0.8,-0.6 -0.9,-2.2 -0.2,-2.9 l 3.1,-0.4 c 2.7,-0.3 4.5,-1 5.1,-2.3 1.6,-4.2 1.5,-18.4 1.5,-24 v -33.6 c 0,-3.3 -0.1,-5.7 -2.6,-8.4 -1.6,-1.6 -4.4,-2.4 -7.2,-2.8 l -2,-0.2 c -0.7,-0.7 -0.7,-2.4 0.2,-2.9 4.9,0.3 11.1,0.3 13.1,0.3 1.9,0 3.8,-0.1 5.3,-0.3 2.3,5.9 16.1,21.3 19.9,25.6 l 11.3,12.7 c 8,9 13.7,15.5 19.2,21.1 h 0.2 c 0.5,-0.6 0.5,-2.4 0.5,-4.9 v -24.9 c 0,-5.5 -0.1,-20.6 -2.3,-24.1 -0.7,-1 -2.6,-1.7 -7.2,-2.3 l -2,-0.2 c -0.8,-0.7 -0.7,-2.6 0.2,-2.9 5.4,0.2 9.3,0.3 13.7,0.3 5,0 8,-0.1 12,-0.3 0.9,0.6 0.9,2.2 0.2,2.9 l -1.6,0.2 c -3.7,0.6 -6.1,1.5 -6.5,2.4 -2,4.2 -1.7,18.6 -1.7,24 v 27.6 z"
   clip-path="url(#SVGID_00000049925423301154522350000014122004600123427722_)"
   id="path42" />
		<path
   style="fill:#002d72;stroke-width:3.26911"
   d="m 415.6,430 c -9.8,0 -15.9,-3 -18.1,-4.3 -1.4,-2.6 -2.9,-10.8 -3.1,-16.3 0.6,-0.8 2.3,-1.1 2.8,-0.3 1.7,5.9 6.5,17.3 20,17.3 9.8,0 14.5,-6.4 14.5,-13.4 0,-5.1 -1,-10.8 -9.5,-16.3 l -11.1,-7.2 c -5.8,-3.8 -12.6,-10.5 -12.6,-20 0,-11.1 8.6,-20 23.7,-20 3.6,0 7.8,0.7 10.8,1.5 1.5,0.5 3.1,0.7 4.1,0.7 1,2.8 2.1,9.3 2.1,14.2 -0.5,0.7 -2.3,1 -2.9,0.4 -1.5,-5.6 -4.6,-13.2 -15.8,-13.2 -11.4,0 -13.8,7.6 -13.8,12.9 0,6.7 5.6,11.6 9.9,14.3 l 9.3,5.8 c 7.3,4.5 14.5,11.3 14.5,22.3 -0.1,12.8 -9.7,21.6 -24.8,21.6"
   clip-path="url(#SVGID_00000049925423301154522350000014122004600123427722_)"
   id="path43" />
		<path
   style="fill:#002d72;stroke-width:3.26911"
   d="m 509.4,383.6 c -6.6,0 -6.9,0.3 -6.9,4.4 v 19.4 c 0,14.5 0.7,16.4 8.4,17.2 l 4,0.4 c 0.8,0.5 0.6,3 -0.3,3.4 -7.4,-0.3 -12.1,-0.4 -17.5,-0.4 -5.9,0 -10.6,0.3 -16,0.4 -0.8,-0.4 -1.1,-2.6 -0.3,-3.4 l 2.3,-0.4 c 7.7,-1.4 8,-2.8 8,-17.2 v -49.6 c 0,-14.5 -1,-16.8 -8.1,-17.4 l -3.6,-0.3 c -0.8,-0.5 -0.6,-3 0.3,-3.4 6.8,0.1 11.4,0.4 17.4,0.4 5.4,0 10.1,-0.1 16,-0.4 0.8,0.4 1.1,2.9 0.3,3.4 l -2.6,0.3 c -8,0.8 -8.3,2.9 -8.3,17.4 v 15.9 c 0,4.3 0.3,4.4 6.9,4.4 h 39.4 c 6.6,0 6.9,-0.1 6.9,-4.4 v -15.9 c 0,-14.5 -0.3,-16.5 -8.4,-17.4 l -2.6,-0.3 c -0.8,-0.5 -0.5,-3 0.3,-3.4 6.3,0.3 11,0.4 16.7,0.4 5.4,0 10.1,-0.1 16.3,-0.4 0.8,0.4 1.1,2.9 0.3,3.4 l -2.9,0.3 c -8,0.8 -8.3,2.9 -8.3,17.4 v 49.6 c 0,14.5 0.3,16.3 8.3,17.2 l 3.3,0.4 c 0.8,0.5 0.6,3 -0.3,3.4 -6.6,-0.3 -11.3,-0.4 -16.7,-0.4 -5.7,0 -10.6,0.1 -16.7,0.4 -0.8,-0.4 -1.1,-2.6 -0.3,-3.4 l 2.6,-0.4 c 8.4,-1.4 8.4,-2.8 8.4,-17.2 V 388 c 0,-4.1 -0.3,-4.4 -6.9,-4.4 z"
   clip-path="url(#SVGID_00000049925423301154522350000014122004600123427722_)"
   id="path44" />
		<path
   style="fill:#002d72;stroke-width:3.26911"
   d="m 577.7,390.5 c 0,-23.3 17.5,-41.1 41.4,-41.1 26.9,0 40.4,19.4 40.4,39.9 0,23.5 -17.9,40.6 -40.4,40.6 -25.8,0.1 -41.4,-18.4 -41.4,-39.4 m 70.2,2.5 c 0,-19.2 -8.5,-39.9 -30.7,-39.9 -12.1,0 -27.8,8.3 -27.8,33.7 0,17.2 8.4,39.6 31.3,39.6 13.9,0 27.2,-10.5 27.2,-33.4"
   clip-path="url(#SVGID_00000049925423301154522350000014122004600123427722_)"
   id="path45" />
		<path
   style="fill:#002d72;stroke-width:3.26911"
   d="m 680.6,410.7 c 0,12.2 0.2,13.7 7.7,14.5 l 3.1,0.3 c 0.7,0.6 0.5,2.6 -0.2,2.9 -6.6,-0.2 -10.5,-0.3 -15.1,-0.3 -4.9,0 -9.1,0.1 -14.2,0.3 -0.7,-0.3 -0.9,-2.2 -0.2,-2.9 l 2.4,-0.3 c 6.7,-0.9 7,-2.3 7,-14.5 v -42.9 c 0,-9.9 -0.2,-11.9 -5.5,-12.5 l -4.2,-0.5 c -0.8,-0.7 -0.7,-2.4 0.2,-2.9 6.2,-0.8 13.4,-0.9 23,-0.9 9.7,0 16.9,1.3 22.3,4.7 5.4,3.4 9.3,9.4 9.3,17.4 0,10.7 -6.6,16.1 -11.6,18.5 -5.1,2.4 -11.3,3.5 -16.1,3.5 -0.8,-0.3 -0.8,-2.1 -0.1,-2.3 12.6,-2.3 17.1,-9.4 17.1,-19.5 0,-11.3 -6.6,-18.6 -18.7,-18.6 -6.2,0 -6.3,0.5 -6.3,4.2 v 51.8 z"
   clip-path="url(#SVGID_00000049925423301154522350000014122004600123427722_)"
   id="path46" />
		<path
   style="fill:#002d72;stroke-width:3.26911"
   d="m 729,368.8 c 0,-12.2 -0.2,-14.1 -7,-14.7 l -2.9,-0.2 c -0.7,-0.5 -0.5,-2.6 0.2,-2.9 5.7,0.2 9.4,0.3 14.7,0.3 4.5,0 8.5,-0.1 13.5,-0.3 0.7,0.3 0.9,2.4 0.2,2.9 l -2.2,0.2 c -6.7,0.7 -7,2.4 -7,14.7 v 13.4 c 0,2.2 0.2,4.4 1.5,4.4 1,0 2.4,-0.7 3.3,-1.3 1.6,-1.4 4.7,-4.4 5.9,-5.6 l 12.6,-12.4 c 2.2,-2.1 7.9,-8 9.1,-9.7 0.6,-0.8 0.8,-1.4 0.8,-1.9 0,-0.5 -0.5,-0.8 -2,-1.2 l -3.1,-0.7 c -0.8,-0.8 -0.7,-2.3 0.2,-2.9 4.1,0.2 8.7,0.3 12.8,0.3 4.1,0 8,-0.1 11.5,-0.3 0.8,0.6 0.9,2.2 0.2,2.9 -3,0.2 -7.6,1.4 -10.8,3.3 -3.3,1.9 -9.8,7.3 -16.3,13.5 l -10.5,9.9 c -1.6,1.6 -2.7,2.7 -2.7,3.6 0,0.8 0.7,1.7 2.2,3.6 11.1,12.7 20,23.2 29.1,32.7 2.8,2.8 4.9,4.3 8.9,4.8 l 2.2,0.3 c 0.8,0.6 0.6,2.6 -0.2,2.9 -3,-0.2 -6.2,-0.4 -11.7,-0.4 -4.8,0 -8.9,0.1 -14.2,0.4 -0.8,-0.2 -1.2,-2.2 -0.5,-2.9 l 2.7,-0.5 c 1.6,-0.2 2.8,-0.6 2.8,-1.2 0,-0.7 -0.8,-1.6 -1.6,-2.7 -2.2,-2.8 -5.2,-5.9 -9.7,-10.9 l -9.3,-10.5 c -6.6,-7.4 -8.5,-9.8 -11.3,-9.8 -1.7,0 -2,1.5 -2,5.6 v 15 c 0,12.2 0.2,13.8 6.7,14.5 l 3.1,0.3 c 0.7,0.5 0.5,2.6 -0.2,2.9 -5.7,-0.2 -9.7,-0.4 -14.2,-0.4 -4.8,0 -8.7,0.1 -13.5,0.4 -0.7,-0.4 -0.9,-2.1 -0.2,-2.9 l 2.3,-0.3 c 6.2,-0.9 6.4,-2.3 6.4,-14.5 v -41.7 z"
   clip-path="url(#SVGID_00000049925423301154522350000014122004600123427722_)"
   id="path47" />
		<path
   style="fill:#002d72;stroke-width:3.26911"
   d="m 808.8,369 c 0,-12.3 -0.2,-14.3 -7.1,-14.9 l -2.9,-0.2 c -0.7,-0.5 -0.5,-2.6 0.2,-2.9 5.8,0.2 9.8,0.4 14.7,0.4 4.7,0 8.6,-0.1 14.4,-0.4 0.7,0.4 0.9,2.4 0.2,2.9 l -2.9,0.2 c -6.9,0.6 -7.1,2.6 -7.1,14.9 v 41.4 c 0,12.3 0.2,14 7.1,14.8 l 2.9,0.3 c 0.7,0.5 0.5,2.6 -0.2,2.9 -5.8,-0.2 -9.8,-0.4 -14.4,-0.4 -4.9,0 -8.4,0.1 -14.2,0.4 -0.7,-0.4 -0.9,-2.2 -0.2,-2.9 l 2.5,-0.3 c 6.9,-0.8 7.1,-2.4 7.1,-14.8 V 369 Z"
   clip-path="url(#SVGID_00000049925423301154522350000014122004600123427722_)"
   id="path48" />
		<path
   style="fill:#002d72;stroke-width:3.26911"
   d="m 909.5,408.3 c 0,3.5 0,17.3 0.4,20.4 -0.2,0.7 -0.9,1.3 -2.2,1.3 -1.4,-2 -4.8,-6 -14.9,-17.6 l -27,-30.7 C 862.7,378.1 854.7,368.6 852.3,366 H 852 c -0.5,1.4 -0.6,4.1 -0.6,7.6 V 399 c 0,5.5 0.1,20.6 2.1,24.1 0.7,1.3 3,2 5.9,2.2 l 3.6,0.4 c 0.7,0.9 0.6,2.3 -0.2,2.9 -5.2,-0.2 -9.3,-0.3 -13.6,-0.3 -4.9,0 -8,0.1 -12.1,0.3 -0.8,-0.6 -0.9,-2.2 -0.2,-2.9 l 3.1,-0.4 c 2.7,-0.3 4.5,-1 5.1,-2.3 1.6,-4.2 1.5,-18.4 1.5,-24 v -33.6 c 0,-3.3 -0.1,-5.7 -2.6,-8.4 -1.6,-1.6 -4.4,-2.4 -7.2,-2.8 l -2,-0.2 c -0.7,-0.7 -0.7,-2.4 0.2,-2.9 4.9,0.3 11,0.3 13.1,0.3 1.9,0 3.8,-0.1 5.4,-0.3 2.3,5.9 16.1,21.3 19.9,25.6 l 11.3,12.7 c 8,9 13.7,15.5 19.2,21.1 h 0.2 c 0.5,-0.6 0.5,-2.4 0.5,-4.9 v -24.9 c 0,-5.5 -0.1,-20.6 -2.3,-24.1 -0.7,-1 -2.6,-1.7 -7.2,-2.3 l -2,-0.2 c -0.8,-0.7 -0.7,-2.6 0.2,-2.9 5.4,0.2 9.3,0.3 13.7,0.3 5,0 8,-0.1 12,-0.3 0.9,0.6 0.9,2.2 0.2,2.9 l -1.6,0.2 c -3.7,0.6 -6,1.5 -6.5,2.4 -2,4.2 -1.7,18.6 -1.7,24 v 27.6 z"
   clip-path="url(#SVGID_00000049925423301154522350000014122004600123427722_)"
   id="path49" />
		<path
   style="fill:#002d72;stroke-width:3.26911"
   d="m 940,430 c -9.8,0 -15.9,-3 -18.2,-4.3 -1.4,-2.6 -2.9,-10.8 -3.1,-16.3 0.6,-0.8 2.3,-1.1 2.8,-0.3 1.7,5.9 6.5,17.3 20,17.3 9.8,0 14.5,-6.4 14.5,-13.4 0,-5.1 -1.1,-10.8 -9.5,-16.3 l -11,-7.2 c -5.8,-3.8 -12.6,-10.5 -12.6,-20 0,-11.1 8.6,-20 23.7,-20 3.6,0 7.8,0.7 10.8,1.5 1.5,0.5 3.1,0.7 4.1,0.7 1.1,2.8 2.1,9.3 2.1,14.2 -0.5,0.7 -2.3,1 -2.9,0.4 -1.5,-5.6 -4.6,-13.2 -15.8,-13.2 -11.4,0 -13.8,7.6 -13.8,12.9 0,6.7 5.6,11.6 9.9,14.3 l 9.3,5.8 c 7.3,4.5 14.5,11.3 14.5,22.3 0,12.8 -9.6,21.6 -24.8,21.6"
   clip-path="url(#SVGID_00000049925423301154522350000014122004600123427722_)"
   id="path50" />
	</g>
</g>
</svg>
